<?xml version="1.0" standalone="no"?>
<!DOCTYPE svg PUBLIC "-//W3C//DTD SVG 20010904//EN"
 "http://www.w3.org/TR/2001/REC-SVG-20010904/DTD/svg10.dtd">
<svg version="1.0" xmlns="http://www.w3.org/2000/svg"
 width="260.000000pt" height="260.000000pt" viewBox="0 0 260.000000 260.000000"
 preserveAspectRatio="xMidYMid meet">
<metadata>
Created by potrace 1.11, written by Peter Selinger 2001-2013
</metadata>
<g transform="translate(0.000000,260.000000) scale(0.100000,-0.100000)"
fill="#000000" stroke="none">
<path d="M0 1300 l0 -1300 297 2 296 3 34 61 c35 65 67 176 81 287 l9 67 -49
31 c-207 133 -336 483 -300 814 l12 107 -30 34 c-36 42 -76 164 -85 264 -11
132 27 282 106 418 49 83 180 209 270 260 300 169 583 196 712 68 34 -35 51
-44 92 -49 74 -10 166 -59 209 -111 30 -37 43 -45 83 -50 119 -17 249 -49 293
-71 92 -47 116 -97 114 -240 -1 -61 -7 -91 -23 -123 -25 -50 -79 -105 -124
-128 -17 -9 -33 -18 -35 -19 -2 -2 8 -19 21 -38 33 -49 52 -147 37 -193 -12
-36 -79 -94 -108 -94 -8 0 11 -19 44 -41 32 -23 82 -61 110 -85 51 -43 52 -44
86 -30 18 8 84 24 145 35 119 23 194 46 261 80 l42 21 0 660 0 660 -1300 0
-1300 0 0 -1300z"/>
<path d="M965 2400 c-140 -36 -295 -111 -384 -184 -111 -92 -194 -224 -227
-361 -22 -98 -15 -258 16 -339 l22 -58 32 85 c41 109 87 180 148 227 45 36
114 68 124 57 2 -2 -11 -16 -31 -31 -51 -40 -130 -157 -164 -245 -50 -129 -64
-232 -58 -421 4 -141 9 -178 31 -255 74 -245 207 -389 396 -425 61 -12 170 -4
170 13 0 5 -56 94 -125 196 -132 198 -186 300 -210 403 -19 80 -19 227 0 297
16 62 56 164 61 158 2 -2 -1 -52 -7 -111 -13 -128 0 -273 32 -369 26 -78 88
-181 223 -370 112 -157 139 -214 165 -344 9 -46 20 -83 25 -83 5 0 50 42 100
92 159 161 215 313 172 462 -21 71 -47 114 -115 188 -65 71 -160 149 -285 232
-54 36 -96 66 -93 66 3 0 43 -16 89 -36 360 -153 518 -340 518 -610 0 -102
-32 -234 -76 -313 -13 -24 -22 -46 -19 -49 3 -3 37 2 75 11 203 49 365 195
386 348 16 120 -48 292 -152 408 l-58 63 44 -22 c144 -74 249 -248 254 -424
l3 -80 34 -12 c56 -19 110 -49 177 -98 l62 -46 0 59 c0 32 -7 96 -16 142 -56
298 -245 525 -558 670 -53 24 -96 47 -96 50 0 3 37 7 82 8 115 2 208 30 222
66 7 20 -11 107 -28 130 -12 16 -14 16 -38 -8 -31 -31 -77 -41 -161 -35 -124
8 -176 61 -177 179 0 100 52 135 189 127 105 -6 180 -46 184 -96 2 -26 26 -18
77 25 59 51 70 78 70 177 0 80 -2 87 -30 119 -34 39 -85 57 -269 91 l-124 24
-48 55 c-56 63 -102 85 -195 94 -58 5 -64 8 -86 42 -37 57 -95 81 -198 80 -49
0 -115 -8 -155 -19z m88 -244 c18 -7 40 -22 49 -33 17 -19 17 -19 -42 -15 -69
5 -100 -10 -126 -59 -33 -65 8 -132 102 -169 l49 -18 -37 -16 c-47 -20 -77
-20 -129 0 -61 25 -99 82 -99 151 0 30 6 66 14 81 40 78 138 113 219 78z m429
-25 c13 -5 50 -12 82 -16 44 -6 56 -11 52 -22 -3 -8 -6 -19 -6 -23 0 -20 -45
-50 -75 -50 -49 0 -155 86 -155 125 0 13 48 7 102 -14z"/>
<path d="M1650 1728 c-19 -10 -26 -23 -28 -51 -6 -74 52 -114 150 -105 40 4
55 11 72 33 22 28 22 28 4 64 -10 19 -30 42 -44 49 -38 20 -124 25 -154 10z"/>
<path d="M2528 1164 c-31 -13 -123 -38 -205 -55 -81 -17 -149 -32 -150 -33 -2
-2 20 -31 47 -65 83 -104 132 -222 175 -428 8 -36 101 -43 179 -13 l26 10 0
305 c0 168 -3 304 -7 304 -5 -1 -33 -12 -65 -25z"/>
<path d="M2560 488 c-19 -5 -65 -8 -102 -6 l-67 4 2 -64 1 -64 103 -95 103
-95 0 166 c0 91 -1 166 -2 165 -2 0 -19 -5 -38 -11z"/>
<path d="M1966 425 c-80 -109 -187 -180 -346 -230 -78 -24 -300 -68 -308 -60
-2 1 13 28 33 60 20 31 44 73 52 93 14 34 10 32 -57 -36 -80 -81 -160 -138
-205 -147 l-30 -6 -1 98 c0 66 -6 110 -16 134 l-16 37 -128 4 c-71 3 -137 8
-146 13 -15 6 -18 2 -18 -26 0 -63 -38 -220 -69 -286 -17 -36 -31 -67 -31 -69
0 -2 432 -4 960 -4 l960 0 0 39 c0 33 -5 43 -32 62 -17 13 -87 73 -155 135
-68 63 -153 134 -189 160 -64 45 -163 93 -195 94 -8 0 -37 -29 -63 -65z"/>
</g>
</svg>
